<?xml version="1.0" encoding="UTF-8"?><svg id="Layer_1" xmlns="http://www.w3.org/2000/svg" width="982.88" height="684.22" viewBox="0 0 982.88 684.22"><defs><style>.cls-1,.cls-2{fill:none;}.cls-1,.cls-2,.cls-3,.cls-4{stroke:#000;stroke-miterlimit:10;}.cls-1,.cls-4{stroke-width:3px;}.cls-2{stroke-width:6px;}.cls-4{fill:#fff;}</style></defs><path class="cls-4" d="m60.64,135.09v-65.31h24.55c5,0,9.01.66,12.03,1.98,3.02,1.32,5.39,3.36,7.1,6.1,1.71,2.75,2.57,5.62,2.57,8.62,0,2.79-.76,5.42-2.28,7.89-1.52,2.47-3.81,4.45-6.88,5.97,3.96,1.16,7,3.13,9.13,5.93,2.13,2.79,3.19,6.09,3.19,9.89,0,3.06-.65,5.9-1.94,8.53-1.29,2.63-2.9,4.66-4.8,6.08-1.9,1.43-4.29,2.5-7.17,3.23-2.87.73-6.39,1.09-10.56,1.09h-24.96Zm8.66-37.87h14.15c3.84,0,6.59-.25,8.26-.76,2.2-.65,3.86-1.74,4.98-3.25,1.12-1.51,1.67-3.42,1.67-5.7,0-2.17-.52-4.08-1.56-5.72-1.04-1.65-2.53-2.78-4.46-3.39-1.93-.61-5.25-.91-9.96-.91h-13.08v19.74Zm0,30.16h16.29c2.8,0,4.76-.1,5.89-.31,1.99-.36,3.66-.95,5-1.78,1.34-.83,2.44-2.04,3.3-3.63.86-1.59,1.29-3.42,1.29-5.5,0-2.44-.62-4.55-1.88-6.35-1.25-1.8-2.98-3.06-5.2-3.79-2.22-.73-5.41-1.09-9.58-1.09h-15.13v22.45Z"/><path class="cls-4" d="m156.81,134.54v-28.8h-9.51c-2.11,0-3.63.1-4.56.31-1.27.32-2.51.9-3.74,1.73-1.23.83-2.61,2.27-4.16,4.34-1.55,2.06-3.52,5.04-5.92,8.94l-8.2,13.49h-10.31l10.77-17.65c2.14-3.45,4.41-6.33,6.8-8.63,1.13-1.06,2.77-2.14,4.94-3.23-5.94-.85-10.34-2.86-13.18-6.02-2.84-3.16-4.27-7.03-4.27-11.64,0-3.57.86-6.83,2.58-9.78,1.72-2.95,4.01-5.01,6.89-6.17,2.87-1.17,7.07-1.75,12.59-1.75h27.46v64.86h-8.2Zm0-57.69h-19.6c-4.59,0-7.95.99-10.08,2.96-2.13,1.98-3.19,4.5-3.19,7.57,0,2.09.55,4.03,1.65,5.82,1.1,1.78,2.7,3.08,4.82,3.89,2.11.81,5.04,1.22,8.79,1.22h17.62v-21.46Z"/><path class="cls-4" d="m83.97,210.12v-28.24l-23.11-38.43h9.65l11.82,20.1c2.18,3.76,4.21,7.52,6.09,11.28,1.8-3.49,3.98-7.41,6.54-11.78l11.62-19.6h9.24l-23.93,38.43v28.24h-7.94Z"/><path class="cls-4" d="m140.83,183.63v-7.93l25.98-.05v25.07c-3.99,3.5-8.1,6.14-12.34,7.9s-8.59,2.65-13.05,2.65c-6.02,0-11.5-1.42-16.42-4.26-4.92-2.84-8.64-6.95-11.15-12.33-2.51-5.38-3.77-11.38-3.77-18.02s1.25-12.71,3.74-18.41c2.5-5.7,6.09-9.93,10.77-12.7,4.69-2.77,10.08-4.15,16.19-4.15,4.44,0,8.44.79,12.03,2.37,3.58,1.58,6.39,3.79,8.43,6.61,2.04,2.83,3.58,6.51,4.64,11.06l-7.32,2.21c-.92-3.44-2.06-6.14-3.43-8.11-1.37-1.97-3.32-3.54-5.86-4.72-2.54-1.18-5.36-1.77-8.45-1.77-3.71,0-6.92.62-9.62,1.87-2.71,1.24-4.89,2.88-6.55,4.91-1.66,2.03-2.95,4.26-3.87,6.68-1.56,4.18-2.34,8.71-2.34,13.59,0,6.02.94,11.06,2.82,15.11s4.62,7.07,8.22,9.03c3.6,1.97,7.42,2.95,11.46,2.95,3.51,0,6.95-.74,10.29-2.23,3.35-1.49,5.88-3.08,7.61-4.77v-12.58h-18.03Z"/><path class="cls-3" d="m60.76,382.89v-65.31h24.55c5,0,9.01.66,12.03,1.98,3.02,1.32,5.39,3.36,7.1,6.1,1.71,2.75,2.57,5.62,2.57,8.62,0,2.79-.76,5.42-2.28,7.89-1.52,2.46-3.81,4.45-6.88,5.97,3.96,1.16,7,3.13,9.13,5.93,2.13,2.79,3.19,6.09,3.19,9.89,0,3.06-.65,5.9-1.94,8.53-1.29,2.63-2.9,4.66-4.8,6.08-1.9,1.43-4.29,2.5-7.17,3.23s-6.39,1.09-10.56,1.09h-24.96Zm8.66-37.87h14.15c3.84,0,6.59-.25,8.26-.76,2.2-.65,3.86-1.74,4.98-3.25,1.12-1.51,1.67-3.42,1.67-5.7,0-2.17-.52-4.08-1.56-5.72-1.04-1.65-2.53-2.78-4.46-3.39-1.93-.61-5.25-.91-9.96-.91h-13.08v19.74Zm0,30.16h16.29c2.8,0,4.76-.1,5.89-.31,1.99-.36,3.66-.95,5-1.78,1.34-.83,2.44-2.04,3.3-3.63.86-1.59,1.29-3.42,1.29-5.5,0-2.43-.62-4.55-1.88-6.35-1.25-1.8-2.98-3.06-5.2-3.79-2.22-.73-5.41-1.09-9.58-1.09h-15.13v22.45Z"/><path class="cls-3" d="m156.93,382.35v-28.8h-9.51c-2.11,0-3.63.1-4.56.31-1.27.32-2.51.9-3.74,1.72-1.23.83-2.61,2.27-4.16,4.34-1.55,2.06-3.52,5.04-5.92,8.94l-8.2,13.49h-10.31l10.77-17.65c2.14-3.45,4.41-6.33,6.8-8.63,1.13-1.06,2.77-2.14,4.94-3.23-5.94-.86-10.34-2.86-13.18-6.02-2.84-3.16-4.27-7.04-4.27-11.64,0-3.57.86-6.83,2.58-9.78,1.72-2.95,4.01-5.01,6.89-6.17,2.87-1.17,7.07-1.75,12.59-1.75h27.46v64.86h-8.2Zm0-57.69h-19.6c-4.59,0-7.95.99-10.08,2.96-2.13,1.98-3.19,4.5-3.19,7.57,0,2.09.55,4.03,1.65,5.82,1.1,1.79,2.7,3.08,4.82,3.89,2.11.81,5.04,1.22,8.79,1.22h17.62v-21.46Z"/><path class="cls-3" d="m84.09,457.93v-28.24l-23.11-38.43h9.65l11.82,20.1c2.18,3.76,4.21,7.52,6.09,11.28,1.8-3.49,3.98-7.41,6.54-11.78l11.62-19.6h9.24l-23.93,38.43v28.24h-7.94Z"/><path class="cls-3" d="m140.95,431.43v-7.93l25.98-.05v25.07c-3.99,3.5-8.1,6.14-12.34,7.9-4.24,1.77-8.59,2.65-13.05,2.65-6.02,0-11.5-1.42-16.42-4.26-4.92-2.84-8.64-6.95-11.15-12.33-2.51-5.38-3.77-11.38-3.77-18.02s1.25-12.71,3.74-18.41c2.5-5.7,6.09-9.93,10.77-12.7s10.08-4.15,16.19-4.15c4.44,0,8.44.79,12.03,2.37,3.58,1.58,6.39,3.79,8.43,6.61,2.04,2.83,3.58,6.51,4.64,11.06l-7.32,2.21c-.92-3.44-2.06-6.14-3.43-8.11s-3.32-3.54-5.86-4.72c-2.54-1.18-5.36-1.77-8.45-1.77-3.71,0-6.92.62-9.62,1.87-2.71,1.24-4.89,2.88-6.55,4.91-1.66,2.03-2.95,4.25-3.87,6.68-1.56,4.18-2.34,8.71-2.34,13.59,0,6.02.94,11.06,2.82,15.12,1.88,4.05,4.62,7.07,8.22,9.03,3.6,1.97,7.42,2.95,11.46,2.95,3.51,0,6.95-.75,10.29-2.24,3.35-1.49,5.88-3.08,7.61-4.77v-12.58h-18.03Z"/><path class="cls-4" d="m332.22,128.63V63.32h24.55c5,0,9.01.66,12.03,1.98,3.02,1.32,5.39,3.36,7.1,6.1,1.71,2.75,2.57,5.62,2.57,8.62,0,2.79-.76,5.42-2.28,7.89-1.52,2.47-3.81,4.45-6.88,5.97,3.96,1.16,7,3.13,9.13,5.93,2.13,2.79,3.19,6.09,3.19,9.89,0,3.06-.65,5.9-1.94,8.53-1.29,2.63-2.9,4.66-4.8,6.08-1.9,1.43-4.29,2.5-7.17,3.23-2.87.73-6.39,1.09-10.56,1.09h-24.96Zm8.66-37.87h14.15c3.84,0,6.59-.25,8.26-.76,2.2-.65,3.86-1.74,4.98-3.25,1.12-1.51,1.67-3.42,1.67-5.7,0-2.17-.52-4.08-1.56-5.72-1.04-1.65-2.53-2.78-4.46-3.39-1.93-.61-5.25-.91-9.96-.91h-13.08v19.74Zm0,30.16h16.29c2.8,0,4.76-.1,5.89-.31,1.99-.36,3.66-.95,5-1.78,1.34-.83,2.44-2.04,3.3-3.63.86-1.59,1.29-3.42,1.29-5.5,0-2.44-.62-4.55-1.88-6.35-1.25-1.8-2.98-3.06-5.2-3.79-2.22-.73-5.41-1.09-9.58-1.09h-15.13v22.45Z"/><path class="cls-4" d="m428.39,128.09v-28.8h-9.51c-2.11,0-3.63.1-4.56.31-1.27.32-2.51.9-3.74,1.73-1.23.83-2.61,2.27-4.16,4.34-1.55,2.06-3.52,5.04-5.92,8.94l-8.2,13.49h-10.31l10.77-17.65c2.14-3.45,4.41-6.33,6.8-8.63,1.13-1.06,2.77-2.14,4.94-3.23-5.94-.85-10.34-2.86-13.18-6.02-2.84-3.16-4.27-7.03-4.27-11.64,0-3.57.86-6.83,2.58-9.78,1.72-2.95,4.01-5.01,6.89-6.17,2.87-1.17,7.07-1.75,12.59-1.75h27.46v64.86h-8.2Zm0-57.69h-19.6c-4.59,0-7.95.99-10.08,2.96-2.13,1.98-3.19,4.5-3.19,7.57,0,2.09.55,4.03,1.65,5.82,1.1,1.78,2.7,3.08,4.82,3.89,2.11.81,5.04,1.22,8.79,1.22h17.62v-21.46Z"/><path class="cls-4" d="m355.55,203.66v-28.24l-23.11-38.43h9.65l11.82,20.1c2.18,3.76,4.21,7.52,6.09,11.28,1.8-3.49,3.98-7.41,6.54-11.78l11.62-19.6h9.24l-23.93,38.43v28.24h-7.94Z"/><path class="cls-4" d="m412.41,177.17v-7.93l25.98-.05v25.07c-3.99,3.5-8.1,6.14-12.34,7.9-4.24,1.77-8.59,2.65-13.05,2.65-6.02,0-11.5-1.42-16.42-4.26-4.92-2.84-8.64-6.95-11.15-12.33-2.51-5.38-3.77-11.38-3.77-18.02s1.25-12.71,3.74-18.41c2.5-5.7,6.09-9.93,10.77-12.7,4.69-2.77,10.08-4.15,16.19-4.15,4.44,0,8.44.79,12.03,2.37,3.58,1.58,6.39,3.79,8.43,6.61,2.04,2.83,3.58,6.51,4.64,11.06l-7.32,2.21c-.92-3.44-2.06-6.14-3.43-8.11-1.37-1.97-3.32-3.54-5.86-4.72-2.54-1.18-5.36-1.77-8.45-1.77-3.71,0-6.92.62-9.62,1.87-2.71,1.24-4.89,2.88-6.55,4.91-1.66,2.03-2.95,4.26-3.87,6.68-1.56,4.18-2.34,8.71-2.34,13.59,0,6.02.94,11.06,2.82,15.11s4.62,7.07,8.22,9.03c3.6,1.97,7.42,2.95,11.46,2.95,3.51,0,6.95-.74,10.29-2.23,3.35-1.49,5.88-3.08,7.62-4.77v-12.58h-18.03Z"/><rect class="cls-1" x="312.34" y="49.63" width="144.72" height="169.83"/><path class="cls-3" d="m332.46,385.5v-65.31h24.55c5,0,9.01.66,12.03,1.98,3.02,1.32,5.39,3.36,7.1,6.1,1.71,2.75,2.57,5.62,2.57,8.62,0,2.79-.76,5.42-2.28,7.89-1.52,2.46-3.81,4.45-6.88,5.97,3.96,1.16,7,3.13,9.13,5.93,2.13,2.79,3.19,6.09,3.19,9.89,0,3.06-.65,5.9-1.94,8.53-1.29,2.63-2.9,4.66-4.8,6.08-1.9,1.43-4.29,2.5-7.17,3.23s-6.39,1.09-10.56,1.09h-24.96Zm8.66-37.87h14.15c3.84,0,6.59-.25,8.26-.76,2.2-.65,3.86-1.74,4.98-3.25,1.12-1.51,1.67-3.42,1.67-5.7,0-2.17-.52-4.08-1.56-5.72-1.04-1.65-2.53-2.78-4.46-3.39-1.93-.61-5.25-.91-9.96-.91h-13.08v19.74Zm0,30.16h16.29c2.8,0,4.76-.1,5.89-.31,1.99-.36,3.66-.95,5-1.78,1.34-.83,2.44-2.04,3.3-3.63.86-1.59,1.29-3.42,1.29-5.5,0-2.43-.62-4.55-1.88-6.35-1.25-1.8-2.98-3.06-5.2-3.79-2.22-.73-5.41-1.09-9.58-1.09h-15.13v22.45Z"/><path class="cls-3" d="m428.64,384.96v-28.8h-9.51c-2.11,0-3.63.1-4.56.31-1.27.32-2.51.9-3.74,1.72-1.23.83-2.61,2.27-4.16,4.34-1.55,2.06-3.52,5.04-5.92,8.94l-8.2,13.49h-10.31l10.77-17.65c2.14-3.45,4.41-6.33,6.8-8.63,1.13-1.06,2.77-2.14,4.94-3.23-5.94-.86-10.34-2.86-13.18-6.02-2.84-3.16-4.27-7.04-4.27-11.64,0-3.57.86-6.83,2.58-9.78,1.72-2.95,4.01-5.01,6.89-6.17,2.87-1.17,7.07-1.75,12.59-1.75h27.46v64.86h-8.2Zm0-57.69h-19.6c-4.59,0-7.95.99-10.08,2.96-2.13,1.98-3.19,4.5-3.19,7.57,0,2.09.55,4.03,1.65,5.82,1.1,1.79,2.7,3.08,4.82,3.89,2.11.81,5.04,1.22,8.79,1.22h17.62v-21.46Z"/><path class="cls-3" d="m355.8,460.54v-28.24l-23.11-38.43h9.65l11.82,20.1c2.18,3.76,4.21,7.52,6.09,11.28,1.8-3.49,3.98-7.41,6.54-11.78l11.62-19.6h9.24l-23.93,38.43v28.24h-7.94Z"/><path class="cls-3" d="m412.65,434.04v-7.93l25.98-.05v25.07c-3.99,3.5-8.1,6.14-12.34,7.9-4.24,1.77-8.59,2.65-13.05,2.65-6.02,0-11.5-1.42-16.42-4.26-4.92-2.84-8.64-6.95-11.15-12.33-2.51-5.38-3.77-11.38-3.77-18.02s1.25-12.71,3.74-18.41c2.5-5.7,6.09-9.93,10.77-12.7s10.08-4.15,16.19-4.15c4.44,0,8.44.79,12.03,2.37,3.58,1.58,6.39,3.79,8.43,6.61,2.04,2.83,3.58,6.51,4.64,11.06l-7.32,2.21c-.92-3.44-2.06-6.14-3.43-8.11-1.37-1.97-3.32-3.54-5.86-4.72-2.54-1.18-5.36-1.77-8.45-1.77-3.71,0-6.92.62-9.62,1.87-2.71,1.24-4.89,2.88-6.55,4.91-1.66,2.03-2.95,4.25-3.87,6.68-1.56,4.18-2.34,8.71-2.34,13.59,0,6.02.94,11.06,2.82,15.12,1.88,4.05,4.62,7.07,8.22,9.03,3.6,1.97,7.42,2.95,11.46,2.95,3.51,0,6.95-.75,10.29-2.24,3.35-1.49,5.88-3.08,7.62-4.77v-12.58h-18.03Z"/><rect class="cls-2" x="312.34" y="306.92" width="144.72" height="169.83"/><path class="cls-4" d="m589,128.63V63.32h24.55c5,0,9.01.66,12.03,1.98,3.02,1.32,5.39,3.36,7.1,6.1,1.71,2.75,2.57,5.62,2.57,8.62,0,2.79-.76,5.42-2.28,7.89-1.52,2.47-3.81,4.45-6.88,5.97,3.96,1.16,7,3.13,9.13,5.93,2.13,2.79,3.19,6.09,3.19,9.89,0,3.06-.65,5.9-1.94,8.53s-2.89,4.66-4.8,6.08c-1.91,1.43-4.29,2.5-7.17,3.23-2.87.73-6.39,1.09-10.56,1.09h-24.96Zm8.66-37.87h14.15c3.84,0,6.59-.25,8.26-.76,2.2-.65,3.86-1.74,4.98-3.25,1.12-1.51,1.67-3.42,1.67-5.7,0-2.17-.52-4.08-1.56-5.72-1.04-1.65-2.53-2.78-4.46-3.39-1.93-.61-5.25-.91-9.96-.91h-13.08v19.74Zm0,30.16h16.29c2.8,0,4.76-.1,5.89-.31,1.99-.36,3.66-.95,5-1.78,1.34-.83,2.44-2.04,3.3-3.63.86-1.59,1.29-3.42,1.29-5.5,0-2.44-.62-4.55-1.88-6.35-1.25-1.8-2.98-3.06-5.2-3.79-2.22-.73-5.41-1.09-9.58-1.09h-15.13v22.45Z"/><path class="cls-4" d="m685.18,128.09v-28.8h-9.51c-2.11,0-3.63.1-4.56.31-1.27.32-2.51.9-3.74,1.73-1.22.83-2.61,2.27-4.16,4.34s-3.52,5.04-5.92,8.94l-8.2,13.49h-10.31l10.77-17.65c2.14-3.45,4.41-6.33,6.8-8.63,1.13-1.06,2.77-2.14,4.94-3.23-5.94-.85-10.34-2.86-13.18-6.02-2.84-3.16-4.27-7.03-4.27-11.64,0-3.57.86-6.83,2.58-9.78,1.72-2.95,4.01-5.01,6.89-6.17,2.87-1.17,7.07-1.75,12.59-1.75h27.46v64.86h-8.2Zm0-57.69h-19.6c-4.59,0-7.95.99-10.08,2.96-2.13,1.98-3.19,4.5-3.19,7.57,0,2.09.55,4.03,1.65,5.82,1.1,1.78,2.7,3.08,4.82,3.89,2.11.81,5.04,1.22,8.79,1.22h17.62v-21.46Z"/><path class="cls-4" d="m612.34,203.66v-28.24l-23.11-38.43h9.65l11.82,20.1c2.18,3.76,4.21,7.52,6.09,11.28,1.8-3.49,3.98-7.41,6.54-11.78l11.62-19.6h9.24l-23.93,38.43v28.24h-7.94Z"/><path class="cls-4" d="m669.19,177.17v-7.93l25.98-.05v25.07c-3.99,3.5-8.1,6.14-12.34,7.9-4.24,1.77-8.59,2.65-13.05,2.65-6.03,0-11.5-1.42-16.42-4.26-4.92-2.84-8.64-6.95-11.15-12.33-2.51-5.38-3.77-11.38-3.77-18.02s1.25-12.71,3.75-18.41c2.5-5.7,6.09-9.93,10.77-12.7,4.69-2.77,10.08-4.15,16.19-4.15,4.44,0,8.44.79,12.03,2.37,3.58,1.58,6.39,3.79,8.43,6.61,2.04,2.83,3.58,6.51,4.64,11.06l-7.32,2.21c-.92-3.44-2.06-6.14-3.43-8.11-1.37-1.97-3.32-3.54-5.86-4.72-2.54-1.18-5.36-1.77-8.45-1.77-3.71,0-6.92.62-9.62,1.87-2.71,1.24-4.89,2.88-6.55,4.91-1.66,2.03-2.95,4.26-3.87,6.68-1.56,4.18-2.34,8.71-2.34,13.59,0,6.02.94,11.06,2.82,15.11s4.62,7.07,8.22,9.03c3.6,1.97,7.42,2.95,11.46,2.95,3.51,0,6.95-.74,10.29-2.23,3.35-1.49,5.88-3.08,7.62-4.77v-12.58h-18.03Z"/><polyline class="cls-1" points="569.12 134.54 569.12 49.63 641.48 49.63"/><polyline class="cls-1" points="713.84 134.54 713.84 219.46 641.48 219.46"/><path class="cls-3" d="m589.24,381.06v-65.31h24.55c5,0,9.01.66,12.03,1.98s5.39,3.36,7.1,6.1c1.71,2.75,2.57,5.62,2.57,8.62,0,2.79-.76,5.42-2.28,7.89-1.52,2.46-3.81,4.45-6.88,5.97,3.96,1.16,7,3.13,9.13,5.93s3.19,6.09,3.19,9.89c0,3.06-.65,5.9-1.94,8.53-1.29,2.63-2.89,4.66-4.8,6.08-1.91,1.43-4.29,2.5-7.17,3.23s-6.39,1.09-10.56,1.09h-24.96Zm8.66-37.87h14.15c3.84,0,6.59-.25,8.26-.76,2.2-.65,3.86-1.74,4.98-3.25,1.12-1.51,1.67-3.42,1.67-5.7,0-2.17-.52-4.08-1.56-5.72-1.04-1.65-2.53-2.78-4.46-3.39-1.93-.61-5.25-.91-9.96-.91h-13.08v19.74Zm0,30.16h16.29c2.8,0,4.76-.1,5.89-.31,1.99-.36,3.66-.95,5-1.78,1.34-.83,2.44-2.04,3.3-3.63.86-1.59,1.29-3.42,1.29-5.5,0-2.43-.62-4.55-1.88-6.35-1.25-1.8-2.98-3.06-5.2-3.79-2.22-.73-5.41-1.09-9.58-1.09h-15.13v22.45Z"/><path class="cls-3" d="m685.42,380.52v-28.8h-9.51c-2.11,0-3.63.1-4.56.31-1.27.32-2.51.9-3.74,1.72-1.22.83-2.61,2.27-4.16,4.34s-3.52,5.04-5.92,8.94l-8.2,13.49h-10.31l10.77-17.65c2.14-3.45,4.41-6.33,6.8-8.63,1.13-1.06,2.77-2.14,4.94-3.23-5.94-.86-10.34-2.86-13.18-6.02-2.84-3.16-4.27-7.04-4.27-11.64,0-3.57.86-6.83,2.58-9.78,1.72-2.95,4.01-5.01,6.89-6.17,2.87-1.17,7.07-1.75,12.59-1.75h27.46v64.86h-8.2Zm0-57.69h-19.6c-4.59,0-7.95.99-10.08,2.96-2.13,1.98-3.19,4.5-3.19,7.57,0,2.09.55,4.03,1.65,5.82,1.1,1.79,2.7,3.08,4.82,3.89,2.11.81,5.04,1.22,8.79,1.22h17.62v-21.46Z"/><path class="cls-3" d="m612.58,456.1v-28.24l-23.11-38.43h9.65l11.82,20.1c2.18,3.76,4.21,7.52,6.09,11.28,1.8-3.49,3.98-7.41,6.54-11.78l11.62-19.6h9.24l-23.93,38.43v28.24h-7.94Z"/><path class="cls-3" d="m669.44,429.6v-7.93l25.98-.05v25.07c-3.99,3.5-8.1,6.14-12.34,7.9-4.24,1.77-8.59,2.65-13.05,2.65-6.03,0-11.5-1.42-16.42-4.26-4.92-2.84-8.64-6.95-11.15-12.33s-3.77-11.38-3.77-18.02,1.25-12.71,3.75-18.41c2.5-5.7,6.09-9.93,10.77-12.7,4.69-2.76,10.08-4.15,16.19-4.15,4.44,0,8.44.79,12.03,2.37,3.58,1.58,6.39,3.79,8.43,6.61,2.04,2.83,3.58,6.51,4.64,11.06l-7.32,2.21c-.92-3.44-2.06-6.14-3.43-8.11-1.37-1.97-3.32-3.54-5.86-4.72-2.54-1.18-5.36-1.77-8.45-1.77-3.71,0-6.92.62-9.62,1.87-2.71,1.24-4.89,2.88-6.55,4.91-1.66,2.03-2.95,4.25-3.87,6.68-1.56,4.18-2.34,8.71-2.34,13.59,0,6.02.94,11.06,2.82,15.12,1.88,4.05,4.62,7.07,8.22,9.03,3.6,1.97,7.42,2.95,11.46,2.95,3.51,0,6.95-.75,10.29-2.24,3.35-1.49,5.88-3.08,7.62-4.77v-12.58h-18.03Z"/><polyline class="cls-2" points="569.12 387.39 569.12 302.48 641.48 302.48"/><polyline class="cls-2" points="713.84 387.39 713.84 472.31 641.48 472.31"/></svg>